<svg width="524" height="858" viewBox="0 0 524 858" fill="none" xmlns="http://www.w3.org/2000/svg">
<g filter="url(#filter0_d_2_427)">
<path d="M238.105 183.357C240.467 179.761 240.073 158.718 238.105 149.894C250.308 166.276 269.76 158.718 277.961 152.891L283.373 180.86C280.913 185.189 270.285 194.145 261.231 195.344C252.178 196.543 241.057 188.685 238.105 183.357Z" fill="white" stroke="#393939"/>
<path d="M322.39 791.104C322.39 793.807 298.363 796 268.725 796C239.087 796 215.059 793.807 215.059 791.104C215.059 788.401 239.087 786.207 268.725 786.207C298.363 786.207 322.39 788.401 322.39 791.104Z" fill="#393939"/>
<path d="M70.2379 387.214C70.2379 387.214 58.7527 392.46 61.6245 411.112C64.4963 429.767 150.634 551.007 172.455 632.614C194.279 714.219 177.05 781.834 268.358 774.257C359.666 766.679 371.725 662.342 391.825 580.153C411.924 497.963 461.886 445.502 464.757 408.197C467.627 370.893 444.081 377.303 444.081 377.303" stroke="#393939" stroke-width="1.33333" stroke-miterlimit="10"/>
<path d="M194.548 496.889C194.548 496.889 202.742 551.783 203.151 554.694C203.561 557.605 194.956 589.208 200.694 606.675C206.429 624.142 215.032 651.173 218.719 659.073C222.407 666.975 222.817 667.805 223.226 680.282C223.635 692.757 220.359 718.124 224.865 726.442C229.372 734.759 238.386 739.332 247.398 737.67C256.412 736.006 260.919 729.355 259.688 718.956C258.46 708.56 254.364 694.836 251.905 683.193C249.446 671.55 246.989 661.984 245.35 654.913C243.711 647.847 244.121 652.419 243.711 625.388C243.302 598.36 241.663 585.468 240.432 572.161C239.206 558.854 239.615 556.773 239.206 553.03C238.795 549.287 253.953 497.304 253.953 497.304L194.139 492.732L194.548 496.889Z" fill="#393939"/>
<path d="M194.548 496.889C194.548 496.889 202.742 551.783 203.151 554.694C203.561 557.605 194.956 589.208 200.694 606.675C206.429 624.142 215.032 651.173 218.719 659.073C222.407 666.975 222.817 667.805 223.226 680.282C223.635 692.757 220.359 718.124 224.865 726.442C229.372 734.759 238.386 739.332 247.398 737.67C256.412 736.006 260.919 729.355 259.688 718.956C258.46 708.56 254.364 694.836 251.905 683.193C249.446 671.55 246.989 661.984 245.35 654.913C243.711 647.847 244.121 652.419 243.711 625.388C243.302 598.36 241.663 585.468 240.432 572.161C239.206 558.854 239.615 556.773 239.206 553.03C238.795 549.287 253.953 497.304 253.953 497.304L194.139 492.732L194.548 496.889Z" stroke="#393939" stroke-width="1.33333" stroke-miterlimit="10"/>
<path d="M217.931 655.333C222.196 658.33 233.48 661.326 244.502 649.34" stroke="black" stroke-width="5"/>
<path d="M259.689 718.957C258.46 708.561 254.362 694.834 251.906 683.191C249.447 671.548 246.988 661.984 245.351 654.914C245.351 654.914 247.399 662.814 237.974 668.635C231.711 672.509 226.539 671.222 222.326 668.589C222.843 671.231 223.037 674.504 223.227 680.281C223.636 692.758 220.359 718.123 224.864 726.44C229.371 734.76 238.385 739.332 247.399 737.67C256.412 736.006 260.917 729.353 259.689 718.957Z" fill="white"/>
<path d="M259.689 718.957C258.46 708.561 254.362 694.834 251.906 683.191C249.447 671.548 246.988 661.984 245.351 654.914C245.351 654.914 247.399 662.814 237.974 668.635C231.711 672.509 226.539 671.222 222.326 668.589C222.843 671.231 223.037 674.504 223.227 680.281C223.636 692.758 220.359 718.123 224.864 726.44C229.371 734.76 238.385 739.332 247.399 737.67C256.412 736.006 260.917 729.353 259.689 718.957Z" stroke="#393939" stroke-width="1.33333" stroke-miterlimit="10"/>
<path d="M247.398 737.67C256.412 736.006 260.917 729.353 259.689 718.957C259.591 718.114 259.445 717.219 259.309 716.336C256.996 727.952 250.614 734.895 239.615 733.096C230.841 731.658 225.198 720.502 222.545 713.736C222.751 719.103 223.381 723.703 224.864 726.44C229.371 734.76 238.385 739.332 247.398 737.67Z" fill="white"/>
<path d="M247.398 737.67C256.412 736.006 260.917 729.353 259.689 718.957C259.591 718.114 259.445 717.219 259.309 716.336C256.996 727.952 250.614 734.895 239.615 733.096C230.841 731.658 225.198 720.502 222.545 713.736C222.751 719.103 223.381 723.703 224.864 726.44C229.371 734.76 238.385 739.332 247.398 737.67Z" stroke="#393939" stroke-width="1.33333" stroke-miterlimit="10"/>
<path d="M283.86 564.674C283.86 564.674 284.682 579.228 287.55 585.052C290.417 590.873 296.562 591.705 300.249 599.191C303.936 606.676 305.167 608.755 300.66 624.558C298.27 632.936 293.648 646.989 301.041 654.11C312.47 665.118 322.149 649.8 326.126 639.95C329.866 630.682 330.035 621.075 328.927 611.249C327.288 596.695 327.288 595.448 327.288 592.952C327.288 590.458 337.122 576.317 331.795 562.178C326.471 548.042 317.046 549.286 317.046 549.286C317.046 549.286 288.367 543.882 283.86 564.674Z" fill="#393939"/>
<path d="M301.041 654.11C293.648 646.989 298.27 632.936 300.66 624.558L328.927 611.249C330.035 621.075 329.866 630.682 326.126 639.95C322.149 649.8 312.47 665.118 301.041 654.11Z" fill="white"/>
<path d="M300.103 595.399C304.367 598.396 315.652 601.393 326.674 589.406" stroke="black" stroke-width="5"/>
<path d="M283.86 564.674C283.86 564.674 284.682 579.228 287.55 585.052C290.417 590.873 296.562 591.705 300.249 599.191C303.936 606.676 305.167 608.755 300.66 624.558C298.27 632.936 293.648 646.989 301.041 654.11C312.47 665.118 322.149 649.8 326.126 639.95C329.866 630.682 330.035 621.075 328.927 611.249C327.288 596.695 327.288 595.448 327.288 592.952C327.288 590.458 337.122 576.317 331.795 562.178C326.471 548.042 317.046 549.286 317.046 549.286C317.046 549.286 288.367 543.882 283.86 564.674Z" stroke="#393939" stroke-width="1.33333" stroke-miterlimit="10"/>
<path d="M272.39 501.464C272.39 501.464 275.257 555.524 280.993 566.339C286.73 577.15 305.575 582.557 312.539 577.982C319.505 573.405 324.831 549.702 326.879 535.98C328.927 522.256 331.386 503.543 331.386 503.543L272.39 501.464Z" fill="#393939"/>
<path d="M272.39 501.464C272.39 501.464 275.257 555.524 280.993 566.339C286.73 577.15 305.575 582.557 312.539 577.982C319.505 573.405 324.831 549.702 326.879 535.98C328.927 522.256 331.386 503.543 331.386 503.543L272.39 501.464Z" stroke="#393939" stroke-width="1.33333" stroke-miterlimit="10"/>
<path d="M197.825 350.507C197.825 350.507 196.359 402.49 195.54 423.283C194.72 444.075 190.624 478.176 188.985 486.909C187.346 495.643 197.825 510.197 197.825 510.197C197.825 510.197 191.877 542.294 221.375 546.454C250.874 550.611 243.43 518.485 246.47 508.496L253.851 496.509L257.23 457.552L272.548 510.197C272.548 510.197 276.977 512.491 281.812 510.197C310.491 506.869 319.505 508.95 328.519 508.533C325.689 512.491 329.626 516.487 329.626 516.487C329.626 516.487 336.022 481.026 332.578 441.57C325.204 404.56 333.434 384.607 326.06 370.885L318.685 357.163C318.685 357.163 261.739 360.074 240.844 359.656C219.948 359.242 200.692 351.756 200.692 351.756" fill="#393939"/>
<path d="M197.825 350.507C197.825 350.507 196.359 402.49 195.54 423.283C194.72 444.075 190.624 478.176 188.985 486.909C187.346 495.643 197.825 510.197 197.825 510.197C197.825 510.197 191.877 542.294 221.375 546.454C250.874 550.611 243.43 518.485 246.47 508.496L253.851 496.509L257.23 457.552L272.548 510.197C272.548 510.197 276.977 512.491 281.812 510.197C310.491 506.869 319.505 508.95 328.519 508.533C325.689 512.491 329.626 516.487 329.626 516.487C329.626 516.487 336.022 481.026 332.578 441.57C325.204 404.56 333.434 384.607 326.06 370.885L318.685 357.163C318.685 357.163 261.739 360.074 240.844 359.656C219.948 359.242 200.692 351.756 200.692 351.756" stroke="#393939" stroke-width="1.33333" stroke-miterlimit="10"/>
<path d="M97.2055 347.998L87.9811 356.084C87.9811 356.084 74.1454 361.19 71.6302 365.445C69.1151 369.703 67.017 378.64 64.9231 379.491C62.825 380.342 57.3754 380.766 59.4714 383.321C61.5674 385.876 65.7594 385.023 65.7594 385.023C65.7594 385.023 67.4383 393.535 68.6959 395.235C69.9535 396.939 74.5646 393.535 82.9507 390.129C91.3367 386.725 92.5943 388.001 94.2711 382.044C95.9479 376.087 98.8823 365.445 98.8823 365.445L104.753 359.914L97.2055 347.998Z" fill="white"/>
<path d="M97.2055 347.998L87.9811 356.084C87.9811 356.084 74.1454 361.19 71.6302 365.445C69.1151 369.703 67.017 378.64 64.9231 379.491C62.825 380.342 57.3754 380.766 59.4714 383.321C61.5674 385.876 65.7594 385.023 65.7594 385.023C65.7594 385.023 67.4383 393.535 68.6959 395.235C69.9535 396.939 74.5646 393.535 82.9507 390.129C91.3367 386.725 92.5943 388.001 94.2711 382.044C95.9479 376.087 98.8823 365.445 98.8823 365.445L104.753 359.914L97.2055 347.998Z" stroke="#393939" stroke-width="1.33333" stroke-miterlimit="10"/>
<path d="M97.2055 347.998L90.5671 353.817L98.8176 365.681C98.8552 365.543 98.8823 365.446 98.8823 365.446L104.753 359.914L97.2055 347.998Z" fill="#FFA654"/>
<path d="M97.2055 347.998L90.5671 353.817L98.8176 365.681C98.8552 365.543 98.8823 365.446 98.8823 365.446L104.753 359.914L97.2055 347.998Z" stroke="#393939" stroke-width="1.33333" stroke-miterlimit="10"/>
<path d="M65.7603 385.023L84.6158 375.453C85.8234 374.841 87.2895 375.285 87.9548 376.479C89.1332 378.598 90.8099 381.933 91.3355 384.598" stroke="#393939" stroke-width="1.33333" stroke-miterlimit="10"/>
<path d="M87.9284 374.61L91.0005 373.05C92.988 372.041 95.3989 372.997 96.1852 375.108L96.4542 375.828C97.2259 377.898 96.1018 380.197 94.012 380.826L91.7742 381.499L87.9284 374.61Z" fill="#393939"/>
<path d="M87.9284 374.61L91.0005 373.05C92.988 372.041 95.3989 372.997 96.1852 375.108L96.4542 375.828C97.2259 377.898 96.1018 380.197 94.012 380.826L91.7742 381.499L87.9284 374.61Z" stroke="#393939" stroke-width="1.33333" stroke-miterlimit="10"/>
<path d="M84.6159 375.453C84.6159 375.453 87.0226 374.149 87.0226 369.327" stroke="#393939" stroke-width="1.33333" stroke-miterlimit="10"/>
<path d="M418.471 344.512L428.894 350.924C428.894 350.924 443.372 353.619 446.553 357.389C449.731 361.159 453.268 369.616 455.475 370.101C457.681 370.586 463.125 370.084 461.477 372.957C459.829 375.827 455.556 375.698 455.556 375.698C455.556 375.698 455.3 384.373 454.338 386.266C453.379 388.156 448.271 385.58 439.445 383.641C430.617 381.704 429.587 383.175 426.955 377.584C424.325 371.994 419.682 362 419.682 362L412.986 357.537L418.471 344.512Z" fill="white"/>
<path d="M418.471 344.512L428.894 350.924C428.894 350.924 443.372 353.619 446.553 357.389C449.731 361.159 453.268 369.616 455.475 370.101C457.681 370.586 463.125 370.084 461.477 372.957C459.829 375.827 455.556 375.698 455.556 375.698C455.556 375.698 455.3 384.373 454.338 386.266C453.379 388.156 448.271 385.58 439.445 383.641C430.617 381.704 429.587 383.175 426.955 377.584C424.325 371.994 419.682 362 419.682 362L412.986 357.537L418.471 344.512Z" stroke="#393939" stroke-width="1.33333" stroke-miterlimit="10"/>
<path d="M418.471 344.512L425.97 349.127L419.784 362.218C419.724 362.091 419.682 362 419.682 362L412.986 357.538L418.471 344.512Z" fill="#FFA654"/>
<path d="M418.471 344.512L425.97 349.127L419.784 362.218C419.724 362.091 419.682 362 419.682 362L412.986 357.538L418.471 344.512Z" stroke="#393939" stroke-width="1.33333" stroke-miterlimit="10"/>
<path d="M455.557 375.699L435.394 369.455C434.103 369.052 432.728 369.742 432.269 371.03C431.454 373.318 430.349 376.889 430.269 379.607" stroke="#393939" stroke-width="1.33333" stroke-miterlimit="10"/>
<path d="M431.988 369.181L428.703 368.165C426.576 367.505 424.357 368.857 423.93 371.07L423.781 371.825C423.36 373.995 424.845 376.074 427.01 376.339L429.327 376.624L431.988 369.181Z" fill="#393939"/>
<path d="M431.988 369.181L428.703 368.165C426.576 367.505 424.357 368.857 423.93 371.07L423.781 371.825C423.36 373.995 424.845 376.074 427.01 376.339L429.327 376.624L431.988 369.181Z" stroke="#393939" stroke-width="1.33333" stroke-miterlimit="10"/>
<path d="M435.394 369.454C435.394 369.454 432.806 368.576 432.013 363.821" stroke="#393939" stroke-width="1.33333" stroke-miterlimit="10"/>
<path d="M236.629 182.026C236.629 182.026 177.704 197.346 176.027 206.709C174.35 216.07 163.03 246.712 163.03 248.84C163.03 250.967 149.194 299.483 149.194 299.483C149.194 299.483 143.744 303.74 143.325 305.442C143.325 305.442 122.78 317.356 114.816 326.296C106.849 335.231 93.4324 342.465 94.2708 345.445C95.1092 348.424 99.3012 365.872 112.718 365.446C126.134 365.023 167.643 344.169 176.027 335.657C184.413 327.145 196.572 300.759 196.572 300.759C196.572 300.759 188.186 328.423 190.284 334.806C192.38 341.19 194.476 352.681 201.183 355.659C207.892 358.638 229.276 366.297 267.848 365.446C306.42 364.597 316.903 363.319 322.352 355.234C327.804 347.147 330.738 338.212 331.996 327.998C333.253 317.781 333.253 313.954 333.253 310.122C333.253 306.293 342.476 327.145 365.119 341.19C387.757 355.234 401.595 368.85 405.787 364.17C409.979 359.489 424.655 352.681 422.14 340.339C419.623 327.998 410.4 325.87 399.08 314.377C387.757 302.889 382.727 290.973 382.727 290.973C382.727 290.973 383.987 285.014 381.469 282.035L378.952 279.055C378.952 279.055 387.338 262.032 376.437 245.01C365.538 227.986 361.763 222.88 352.539 211.389C343.316 199.899 345.412 196.92 336.19 191.389C326.965 185.855 316.637 186.281 295.675 182.026C274.711 177.771 285.696 188.604 258.279 188.352C240.073 189.351 236.629 182.026 236.629 182.026Z" fill="#6E80DC"/>
<path d="M236.629 182.026C236.629 182.026 177.704 197.346 176.027 206.709C174.35 216.07 163.03 246.712 163.03 248.84C163.03 250.967 149.194 299.483 149.194 299.483C149.194 299.483 143.744 303.74 143.325 305.442C143.325 305.442 122.78 317.356 114.816 326.296C106.849 335.231 93.4324 342.465 94.2708 345.445C95.1092 348.424 99.3012 365.872 112.718 365.446C126.134 365.023 167.643 344.169 176.027 335.657C184.413 327.145 196.572 300.759 196.572 300.759C196.572 300.759 188.186 328.423 190.284 334.806C192.38 341.19 194.476 352.681 201.183 355.659C207.892 358.638 229.276 366.297 267.848 365.446C306.42 364.597 316.903 363.319 322.352 355.234C327.804 347.147 330.738 338.212 331.996 327.998C333.253 317.781 333.253 313.954 333.253 310.122C333.253 306.293 342.476 327.145 365.119 341.19C387.757 355.234 401.595 368.85 405.787 364.17C409.979 359.489 424.655 352.681 422.14 340.339C419.623 327.998 410.4 325.87 399.08 314.377C387.757 302.889 382.727 290.973 382.727 290.973C382.727 290.973 383.987 285.014 381.469 282.035L378.952 279.055C378.952 279.055 387.338 262.032 376.437 245.01C365.538 227.986 361.763 222.88 352.539 211.389C343.316 199.899 345.412 196.92 336.19 191.389C326.965 185.855 315.16 186.281 294.198 182.026C273.234 177.771 285.696 188.105 258.279 187.853C238.597 187.853 236.629 182.026 236.629 182.026Z" stroke="#393939" stroke-width="1.33333" stroke-miterlimit="10"/>
<path d="M333.254 310.123C333.254 310.123 337.027 284.589 339.544 263.309C342.059 242.03 336.188 225.008 332.416 218.625" stroke="#393939" stroke-width="1.33333" stroke-miterlimit="10"/>
<path d="M195.733 227.986C195.733 227.986 191.122 243.306 194.895 256.076C198.668 268.841 198.668 275.225 198.248 282.035C197.829 288.844 196.572 300.76 196.572 300.76" stroke="#393939" stroke-width="1.33333" stroke-miterlimit="10"/>
<path d="M200.765 324.592C202.022 323.741 225.921 290.545 225.921 290.545L230.113 293.526L203.699 328.849" fill="white"/>
<path d="M200.765 324.592C202.022 323.741 225.921 290.545 225.921 290.545L230.113 293.526L203.699 328.849" stroke="#393939" stroke-miterlimit="10"/>
<path d="M293.842 296.079L317.321 337.359L321.935 333.955L298.873 294.377" fill="white"/>
<path d="M293.842 296.079L317.321 337.359L321.935 333.955L298.873 294.377" stroke="#393939" stroke-miterlimit="10"/>
<path d="M231.371 362.467C231.371 362.467 229.694 359.49 216.278 345.87" stroke="#393939" stroke-width="1.33333" stroke-miterlimit="10"/>
<path d="M267.848 365.446C267.848 365.446 282.941 358.638 286.297 350.552" stroke="#393939" stroke-width="1.33333" stroke-miterlimit="10"/>
<path d="M281.683 363.745C281.683 363.745 286.713 363.319 290.069 358.213" stroke="#393939" stroke-width="1.33333" stroke-miterlimit="10"/>
<path d="M239.389 146.717C239.389 146.717 237.969 156.802 242.511 165.155C247.054 173.51 251.594 181.866 255.853 181.002C260.109 180.138 275.438 163.715 278.558 159.393C281.68 155.072 283.951 146.429 283.951 146.429C283.951 146.429 257.838 159.393 239.389 146.717Z" fill="white"/>
<path d="M239.389 146.717C239.389 146.717 237.969 156.802 242.511 165.155C247.054 173.51 251.594 181.866 255.853 181.002C260.109 180.138 275.438 163.715 278.558 159.393C281.68 155.072 283.951 146.429 283.951 146.429C283.951 146.429 257.838 159.393 239.389 146.717Z" stroke="#393939" stroke-width="1.33333" stroke-miterlimit="10"/>
<path d="M283.952 146.429C283.952 146.429 257.839 159.395 239.39 146.716C239.39 146.716 239.019 149.39 239.271 153.116C243.367 159.797 251.582 169.596 263.491 175.464C269.424 170.03 276.54 162.189 278.559 159.395C281.681 155.072 283.952 146.429 283.952 146.429Z" fill="#393939"/>
<path d="M283.952 146.429C283.952 146.429 257.839 159.395 239.39 146.716C239.39 146.716 239.019 149.39 239.271 153.116C243.367 159.797 251.582 169.596 263.491 175.464C269.424 170.03 276.54 162.189 278.559 159.395C281.681 155.072 283.952 146.429 283.952 146.429Z" stroke="#393939" stroke-width="1.33333" stroke-miterlimit="10"/>
<path d="M231.189 112.831C231.189 112.831 224.865 107.181 223.247 112.175C221.631 117.169 222.298 122.228 226.227 126.631C230.154 131.034 232.636 131.712 232.636 131.712L231.189 112.831Z" fill="white"/>
<path d="M231.189 112.831C231.189 112.831 224.865 107.181 223.247 112.175C221.631 117.169 222.298 122.228 226.227 126.631C230.154 131.034 232.636 131.712 232.636 131.712L231.189 112.831Z" stroke="#393939" stroke-width="1.33333" stroke-miterlimit="10"/>
<path d="M291.899 119.059C291.899 119.059 298.996 114.448 299.849 119.634C300.7 124.821 299.28 129.719 294.737 133.464C290.197 137.209 287.642 137.497 287.642 137.497L291.899 119.059Z" fill="white"/>
<path d="M291.899 119.059C291.899 119.059 298.996 114.448 299.849 119.634C300.7 124.821 299.28 129.719 294.737 133.464C290.197 137.209 287.642 137.497 287.642 137.497L291.899 119.059Z" stroke="#393939" stroke-width="1.33333" stroke-miterlimit="10"/>
<path d="M258.123 60.8596C258.123 60.8596 239.672 56.5369 235.982 71.5204C232.293 86.5019 228.887 109.551 229.171 120.212C229.454 130.87 234.848 146.428 237.686 149.597C240.525 152.768 248.756 161.121 254.717 161.411C260.677 161.699 274.87 157.952 281.397 151.326C287.925 144.7 286.791 138.362 290.196 127.701C293.604 117.043 298.712 101.771 295.59 86.5019C292.468 71.2325 294.739 74.9774 282.818 65.4703C270.897 55.9632 254.717 49.9131 258.123 60.8596Z" fill="white"/>
<path d="M258.123 60.8596C258.123 60.8596 239.672 56.5369 235.982 71.5204C232.293 86.5019 228.887 109.551 229.171 120.212C229.454 130.87 234.848 146.428 237.686 149.597C240.525 152.768 248.756 161.121 254.717 161.411C260.677 161.699 274.87 157.952 281.397 151.326C287.925 144.7 286.791 138.362 290.196 127.701C293.604 117.043 298.712 101.771 295.59 86.5019C292.468 71.2325 294.739 74.9774 282.818 65.4703C270.897 55.9632 254.717 49.9131 258.123 60.8596Z" stroke="#393939" stroke-width="1.33333" stroke-miterlimit="10"/>
<path d="M295.59 86.5015C292.468 71.2322 294.739 74.977 282.818 65.4699C270.897 55.9628 254.717 49.9127 258.123 60.8593C258.123 60.8593 239.672 56.5386 235.982 71.5201C233.688 80.8366 231.504 93.2714 230.249 103.907L230.875 103.788C230.875 103.788 234.564 103.212 235.131 95.7207C235.699 88.231 235.982 77.8581 239.106 77.5702C242.228 77.2823 247.905 85.3499 257.272 82.1788C266.638 79.0097 271.747 73.5354 279.696 76.9944C287.642 80.4514 290.482 87.0773 288.495 89.9584C286.507 92.8396 284.803 97.1623 286.791 100.619C288.776 104.076 290.482 106.957 291.047 109.551C291.471 111.483 291.736 118.863 291.844 122.489C294.974 112.358 298.236 99.4359 295.59 86.5015Z" fill="#393939"/>
<path d="M295.59 86.5015C292.468 71.2322 294.739 74.977 282.818 65.4699C270.897 55.9628 254.717 49.9127 258.123 60.8593C258.123 60.8593 239.672 56.5386 235.982 71.5201C233.688 80.8366 231.504 93.2714 230.249 103.907L230.875 103.788C230.875 103.788 234.564 103.212 235.131 95.7207C235.699 88.231 235.982 77.8581 239.106 77.5702C242.228 77.2823 247.905 85.3499 257.272 82.1788C266.638 79.0097 271.747 73.5354 279.696 76.9944C287.642 80.4514 290.482 87.0773 288.495 89.9584C286.507 92.8396 284.803 97.1623 286.791 100.619C288.776 104.076 290.482 106.957 291.047 109.551C291.471 111.483 291.736 118.863 291.844 122.489C294.974 112.358 298.236 99.4359 295.59 86.5015V86.5015Z" stroke="#393939" stroke-width="1.33333" stroke-miterlimit="10"/>
<path d="M254.149 105.805L255.567 110.416L253.582 115.6" stroke="#393939" stroke-width="1.33333" stroke-miterlimit="10"/>
<path d="M253.298 123.955C253.298 124.819 257.838 129.142 264.652 125.685" stroke="#393939" stroke-width="1.33333" stroke-miterlimit="10"/>
<path d="M260.678 138.362C260.678 139.793 259.533 140.955 258.123 140.955C256.713 140.955 255.568 139.793 255.568 138.362C255.568 136.929 256.713 135.769 258.123 135.769C259.533 135.769 260.678 136.929 260.678 138.362Z" fill="#393939"/>
<path d="M247.337 111.279C247.337 112.551 246.573 113.584 245.635 113.584C244.692 113.584 243.931 112.551 243.931 111.279C243.931 110.007 244.692 108.974 245.635 108.974C246.573 108.974 247.337 110.007 247.337 111.279Z" fill="#393939"/>
<path d="M274.869 112.143C274.869 113.418 274.106 114.449 273.168 114.449C272.225 114.449 271.464 113.418 271.464 112.143C271.464 110.871 272.225 109.84 273.168 109.84C274.106 109.84 274.869 110.871 274.869 112.143Z" fill="#393939"/>
<path d="M239.389 102.348C239.389 102.348 245.35 100.044 251.878 104.077" stroke="#393939" stroke-width="1.33333" stroke-miterlimit="10"/>
<path d="M268.058 105.805C268.058 105.805 275.439 101.772 283.952 106.093L268.058 105.805Z" fill="white"/>
<path d="M268.058 105.805C268.058 105.805 275.439 101.772 283.952 106.093" stroke="#393939" stroke-width="1.33333" stroke-miterlimit="10"/>
<path d="M196.773 363.657C221.047 372.98 280.224 386.032 322.737 363.657" stroke="black"/>
<path d="M195.789 370.649C221.012 379.694 282.5 392.358 326.674 370.649" stroke="black" stroke-width="3" stroke-linejoin="round"/>
<path d="M247.946 406.609C250.406 423.923 257 463.946 263.692 485.522C272.056 512.492 288.786 569.428 302.071 570.427" stroke="white"/>
<path d="M211.535 562.436C214.651 565.766 222.95 571.026 231.216 565.433" stroke="white" stroke-linejoin="round"/>
<path d="M339.959 245.788L193.156 244.789C192.668 246.598 192.376 252.486 195.106 261.565C197.835 270.645 198.518 281.138 198.518 285.25L336.464 285.743C339.193 272.322 340.609 253.847 339.959 245.788Z" fill="black" stroke="#393939"/>
<path d="M227.772 185.355C238.597 194.345 274.025 200.838 291.738 182.358" stroke="#393939"/>
<path d="M227.772 183.357C238.597 192.347 274.025 198.84 291.738 180.361" stroke="#393939" stroke-dasharray="1 1"/>
</g>
<defs>
<filter id="filter0_d_2_427" x="-19" y="-19" width="562" height="897" filterUnits="userSpaceOnUse" color-interpolation-filters="sRGB">
<feFlood flood-opacity="0" result="BackgroundImageFix"/>
<feColorMatrix in="SourceAlpha" type="matrix" values="0 0 0 0 0 0 0 0 0 0 0 0 0 0 0 0 0 0 127 0" result="hardAlpha"/>
<feOffset dy="4"/>
<feGaussianBlur stdDeviation="29"/>
<feComposite in2="hardAlpha" operator="out"/>
<feColorMatrix type="matrix" values="0 0 0 0 0.670833 0 0 0 0 0.670833 0 0 0 0 0.670833 0 0 0 0.21 0"/>
<feBlend mode="normal" in2="BackgroundImageFix" result="effect1_dropShadow_2_427"/>
<feBlend mode="normal" in="SourceGraphic" in2="effect1_dropShadow_2_427" result="shape"/>
</filter>
</defs>
</svg>
